<svg width="48" height="48" viewBox="0 0 48 48" fill="none" xmlns="http://www.w3.org/2000/svg">
<path d="M24.8571 18H18C14.6863 18 12 15.3137 12 12C12 8.68629 14.6863 6 18 6H24.8571V18Z" fill="#E64A19"/>
<path d="M24 30H18C14.6863 30 12 27.3137 12 24C12 20.6863 14.6863 18 18 18H24V30Z" fill="#7C4DFF"/>
<path d="M18 42C14.6863 42 12 39.3137 12 36C12 32.6863 14.6863 30 18 30H24V36C24 39.3137 21.3137 42 18 42Z" fill="#66BB6A"/>
<path d="M30 18H24V6H30C33.3137 6 36 8.68629 36 12C36 15.3137 33.3137 18 30 18Z" fill="#FF7043"/>
<path d="M30 30C33.3137 30 36 27.3137 36 24C36 20.6863 33.3137 18 30 18C26.6863 18 24 20.6863 24 24C24 27.3137 26.6863 30 30 30Z" fill="#29B6F6"/>
</svg>
