<svg width="48" height="48" viewBox="0 0 48 48" fill="none" xmlns="http://www.w3.org/2000/svg">
<path d="M3.00175 34.0007H4.68175V27.8014L7.01537 33.1012C7.30324 33.7619 7.69699 33.9955 8.46962 33.9955C9.24224 33.9955 9.62024 33.7619 9.90812 33.1012L12.2417 27.937V34.0007H13.9217V27.65C13.9217 27.0401 13.6794 26.7444 13.1789 26.5921C11.9827 26.2159 11.1795 26.5405 10.8164 27.3551L8.42324 32.7451L6.10537 27.3551C5.75712 26.5414 4.93987 26.2159 3.74287 26.5921C3.24237 26.7444 3 27.0392 3 27.6491V33.9999L3.00175 34.0007Z" fill="#00796B"/>
<path d="M14.7607 28.9608H16.4407V32.5089C16.4276 32.6839 16.4967 33.1485 17.307 33.1607C17.72 33.1677 19.7754 33.1607 19.8007 33.1607V28.9608H21.4807C21.4877 28.9608 21.4807 34.1827 21.4807 34.2046C21.4895 35.4926 19.8812 35.6589 19.1419 35.6807H14.7616V34.8407C14.7704 34.8407 18.9502 34.8416 18.9625 34.8407C19.9145 34.7401 19.8016 34.216 19.8016 34.0567V34.0007H17.1661C15.7049 33.9876 14.773 33.3436 14.7625 32.6095C14.7607 32.5412 14.794 28.9923 14.7607 28.9608Z" fill="#00796B"/>
<path d="M22.3207 34.0007H26.5269C27.0781 34.0007 27.6136 33.8852 28.0389 33.6857C28.7476 33.3602 29.0399 32.9201 29.0399 32.3417V31.1447C29.0399 29.8532 27.4386 29.8007 26.5199 29.8007H24.8399C24.1792 29.8007 24.0786 29.4017 23.9999 28.9607V28.1207C24.0786 27.7847 24.2256 27.3332 24.8075 27.2807C25.4839 27.2807 29.039 27.2807 29.039 27.2807V26.4407H25.0437C24.3831 26.4407 22.319 26.5195 22.319 28.1207V29.1594C22.319 29.8944 22.9647 30.4929 24.3665 30.6399C24.524 30.6504 24.6815 30.6609 24.8381 30.6609C24.8381 30.6609 26.4709 30.6294 26.5181 30.6399C27.4631 30.6399 27.3581 31.3749 27.3581 31.4799V32.3199C27.3581 32.4354 27.3319 33.1599 26.5085 33.1599C26.4455 33.1599 22.3181 33.1599 22.3181 33.1599V34.0007H22.3207Z" fill="#F57F17"/>
<path d="M38.28 32.2849C38.28 33.2991 38.8532 33.8678 40.373 33.9816C40.5148 33.9912 40.6574 33.9999 40.8 33.9999H45V33.1599H41.1194C40.2523 33.1599 39.96 32.7959 39.96 32.2753V26.4399H38.28V32.2849Z" fill="#F57F17"/>
<path d="M29.866 32.3207V28.1207C29.866 27.2282 30.3035 26.6122 31.5425 26.4407H32.1305H35.1466H35.606C36.845 26.6122 37.426 27.2274 37.426 28.1207V32.305C37.426 33.0286 37.2378 33.4171 36.6245 33.6691L37.9265 34.8398H36.0365L35.1002 33.9999H34.0003L32.1313 34.0103C31.861 34.0103 31.5757 33.9727 31.2625 33.887C30.3227 33.6306 29.866 33.1371 29.866 32.3207ZM31.546 32.3207C31.6317 32.7294 31.9598 33.1607 32.5435 33.1607H34.1745L33.24 32.3207H35.1431L35.5972 32.7425C35.5972 32.7425 35.76 32.6095 35.76 32.3207C35.76 32.032 35.746 28.1207 35.746 28.1207C35.6602 27.741 35.2752 27.2807 34.7065 27.2807H32.5443C31.889 27.2807 31.5468 27.7602 31.5468 28.2065L31.546 32.3207Z" fill="#F57F17"/>
<path d="M43.4239 25.5553C42.5218 25.5308 41.8332 25.6148 41.2443 25.8624C41.0772 25.9333 40.8103 25.935 40.7823 26.145C40.8742 26.2413 40.8882 26.3857 40.9617 26.5038C41.1017 26.7313 41.3397 27.0367 41.5514 27.1959C41.7833 27.3709 42.0222 27.5582 42.2698 27.7095C42.7108 27.9782 43.2034 28.1322 43.6287 28.4017C43.8789 28.56 44.1274 28.7613 44.3724 28.9398C44.4932 29.029 44.5737 29.1664 44.7312 29.2224C44.7312 29.2137 44.7312 29.2058 44.7312 29.197C44.6489 29.092 44.6271 28.9477 44.5518 28.8374C44.4407 28.7263 44.3296 28.6152 44.2184 28.504C43.8929 28.0718 43.4782 27.6912 43.0389 27.3762C42.6881 27.1242 41.9032 26.7838 41.7562 26.376C41.7474 26.3673 41.7396 26.3594 41.7299 26.3498C41.9784 26.3218 42.2698 26.2317 42.4991 26.1704C42.8849 26.0672 43.2288 26.0943 43.6269 25.991C43.8063 25.9394 43.9857 25.8887 44.1651 25.837C44.1651 25.8029 44.1651 25.7688 44.1651 25.7347C43.9638 25.5282 43.8194 25.2552 43.6007 25.0679C43.0258 24.5788 42.3993 24.0905 41.7544 23.6828C41.3966 23.457 40.9538 23.31 40.5749 23.1184C40.4472 23.0537 40.2232 23.0204 40.1392 22.9137C39.9397 22.6599 39.8321 22.337 39.6781 22.0422C39.3561 21.4227 39.0393 20.7454 38.7549 20.0936C38.5598 19.6491 38.4329 19.2098 38.1906 18.8108C37.0259 16.8963 35.7721 15.7404 33.8313 14.6047C33.4183 14.3632 32.9205 14.2678 32.3946 14.1427C32.112 14.1261 31.8302 14.1086 31.5476 14.0911C31.3752 14.0184 31.1967 13.8084 31.034 13.7061C30.3908 13.2992 28.7406 12.4154 28.2646 13.5774C27.9636 14.3107 28.7143 15.0264 28.983 15.3983C29.1711 15.6591 29.4126 15.9513 29.5473 16.2453C29.6357 16.4378 29.6515 16.6312 29.7267 16.8351C29.9131 17.3373 30.208 17.9096 30.4495 18.3742C30.5711 18.6096 30.7058 18.8563 30.8598 19.0663C30.9543 19.1949 31.1162 19.2518 31.1424 19.4513C30.9841 19.6727 30.9753 20.0166 30.8861 20.2983C30.4853 21.5627 30.6367 23.1333 31.2195 24.0678C31.398 24.3548 31.8197 24.9708 32.3989 24.7345C32.9056 24.528 32.7927 23.8884 32.9371 23.324C32.9694 23.1963 32.9493 23.1027 33.0141 23.0169C33.0141 23.0257 33.0141 23.0335 33.0141 23.0432C33.1681 23.3503 33.3212 23.6592 33.4761 23.9663C33.8182 24.5167 34.4246 25.0915 34.9373 25.48C35.2033 25.6813 35.4133 26.0295 35.7581 26.1468C35.7581 26.138 35.7581 26.1302 35.7581 26.1205C35.7493 26.1205 35.7414 26.1205 35.7318 26.1205C35.6653 26.0164 35.5603 25.9735 35.4754 25.8895C35.2751 25.6927 35.0511 25.4485 34.8857 25.2228C34.4184 24.5884 34.0054 23.8937 33.6292 23.1709C33.4498 22.8253 33.2932 22.4455 33.1418 22.0938C33.0832 21.9582 33.0841 21.7534 32.9624 21.6834C32.7962 21.9407 32.5529 22.1489 32.4243 22.4525C32.2196 22.9382 32.1925 23.5314 32.1172 24.1448C32.0717 24.1605 32.0918 24.15 32.0656 24.1702C31.7086 24.0835 31.5826 23.7169 31.4496 23.401C31.1136 22.603 31.0515 21.3185 31.3472 20.4007C31.4233 20.1627 31.769 19.4146 31.6298 19.1949C31.5633 18.9753 31.3428 18.8484 31.2203 18.6813C31.0672 18.4748 30.9158 18.2018 30.81 17.9629C30.5352 17.3408 30.2745 16.6172 29.9848 15.9881C29.8466 15.6871 29.613 15.3834 29.4205 15.1166C29.2078 14.8208 28.969 14.6029 28.8045 14.2451C28.7458 14.1182 28.6662 13.9143 28.7528 13.7831C28.7808 13.6947 28.8193 13.6579 28.9068 13.6291C29.0556 13.5136 29.4695 13.6667 29.6252 13.7314C30.0365 13.9021 30.3795 14.0648 30.7277 14.2958C30.8948 14.4069 31.0637 14.6213 31.2658 14.6808C31.3428 14.6808 31.4198 14.6808 31.4968 14.6808C31.8582 14.7639 32.2624 14.7071 32.5993 14.8094C33.1961 14.9906 33.7298 15.2723 34.2146 15.5786C35.6933 16.5122 36.9017 17.8404 37.7286 19.4259C37.8616 19.6814 37.9193 19.9247 38.0357 20.1951C38.2719 20.7411 38.5703 21.3028 38.8048 21.8365C39.0393 22.3694 39.2686 22.9067 39.6002 23.3503C39.7752 23.583 40.4489 23.7082 40.7543 23.8377C40.9687 23.9287 41.3204 24.0223 41.5234 24.1448C41.9119 24.3793 42.2882 24.6584 42.6513 24.9139C42.8368 25.0425 43.3959 25.3234 43.4239 25.5553Z" fill="#00796B"/>
<path d="M31.9608 15.7851C31.7727 15.7816 31.6397 15.8052 31.4988 15.8367C31.4988 15.8454 31.4988 15.8533 31.4988 15.8629C31.5075 15.8629 31.5154 15.8629 31.525 15.8629C31.6152 16.0467 31.7727 16.1666 31.8838 16.3249C31.9695 16.5043 32.0544 16.6837 32.1402 16.8631C32.1489 16.8543 32.1568 16.8464 32.1655 16.8377C32.3239 16.7257 32.3974 16.5472 32.3965 16.2733C32.3327 16.2059 32.323 16.1219 32.2679 16.0423C32.1944 15.9347 32.0527 15.8743 31.9608 15.7851Z" fill="#00796B"/>
</svg>
