<svg width="50" height="48" viewBox="0 0 50 48" fill="none" xmlns="http://www.w3.org/2000/svg">
<path d="M12.6871 5.99506H36.5333C40.1487 5.99506 43.0718 8.91813 43.0718 12.5335V35.4566C43.0718 39.072 40.1487 41.9951 36.5333 41.9951H12.6871C9.07176 41.9951 6.14868 39.072 6.14868 35.4566V12.5335C6.14868 8.91813 9.07176 5.99506 12.6871 5.99506Z" fill="#001E36"/>
<path d="M14.4563 31.2412V15.4104C14.4563 15.3027 14.5025 15.2412 14.6101 15.2412C14.8717 15.2412 15.1178 15.2412 15.4717 15.2258C15.8409 15.2104 16.2255 15.2104 16.6409 15.195C17.0563 15.1796 17.5025 15.1796 17.9794 15.1642C18.4563 15.1489 18.9178 15.1489 19.3794 15.1489C20.6409 15.1489 21.6871 15.3027 22.5486 15.6258C23.3178 15.8873 24.0255 16.3181 24.6101 16.8873C25.1025 17.3796 25.4871 17.9796 25.7332 18.6412C25.964 19.2873 26.0871 19.9489 26.0871 20.6412C26.0871 21.9642 25.7794 23.0566 25.164 23.9181C24.5486 24.7796 23.6871 25.4258 22.6871 25.795C21.6409 26.1796 20.4871 26.3181 19.2255 26.3181C18.8563 26.3181 18.6101 26.3181 18.4563 26.3027C18.3025 26.2873 18.0871 26.2873 17.7948 26.2873V31.2258C17.8101 31.3335 17.7332 31.4258 17.6255 31.4412H14.6409C14.5178 31.4412 14.4563 31.3796 14.4563 31.2412ZM17.8101 18.2104V23.3796C18.0255 23.395 18.2255 23.4104 18.4101 23.4104H19.2255C19.8255 23.4104 20.4255 23.3181 20.9948 23.1335C21.4871 22.995 21.9178 22.7027 22.2563 22.3181C22.5794 21.9335 22.7332 21.4104 22.7332 20.7335C22.7486 20.2566 22.6255 19.7796 22.3794 19.3642C22.1178 18.9642 21.7486 18.6566 21.3025 18.4873C20.7332 18.2566 20.1178 18.1642 19.4871 18.1796C19.0871 18.1796 18.7332 18.1796 18.4409 18.195C18.1332 18.1796 17.9178 18.195 17.8101 18.2104ZM35.6871 22.4412C35.2255 22.195 34.7332 22.0258 34.2101 21.9181C33.6409 21.795 33.0717 21.7181 32.4871 21.7181C32.1794 21.7027 31.8563 21.7489 31.564 21.8258C31.364 21.8719 31.1948 21.9796 31.0871 22.1335C31.0101 22.2566 30.964 22.4104 30.964 22.5489C30.964 22.6873 31.0255 22.8258 31.1178 22.9489C31.2563 23.1181 31.4409 23.2566 31.6409 23.3642C31.9948 23.5489 32.364 23.7181 32.7332 23.8719C33.564 24.1489 34.364 24.5335 35.1025 24.995C35.6101 25.3181 36.0255 25.7489 36.3178 26.2719C36.564 26.7643 36.6871 27.3027 36.6717 27.8566C36.6871 28.5796 36.4717 29.3027 36.0717 29.9027C35.6409 30.5181 35.0409 30.995 34.3486 31.2719C33.5948 31.595 32.6717 31.7642 31.564 31.7642C30.8563 31.7642 30.164 31.7027 29.4717 31.5642C28.9332 31.4719 28.3948 31.3027 27.9025 31.0719C27.7948 31.0104 27.7178 30.9027 27.7332 30.7796V28.1027C27.7332 28.0566 27.7486 27.995 27.7948 27.9643C27.8409 27.9335 27.8871 27.9489 27.9332 27.9796C28.5332 28.3335 29.164 28.5796 29.8409 28.7335C30.4255 28.8873 31.0409 28.9643 31.6563 28.9643C32.2409 28.9643 32.6563 28.8873 32.9332 28.7489C33.1794 28.6412 33.3486 28.3796 33.3486 28.1027C33.3486 27.8873 33.2255 27.6873 32.9794 27.4873C32.7332 27.2873 32.2255 27.0566 31.4717 26.7642C30.6871 26.4873 29.964 26.1181 29.2871 25.6566C28.8101 25.3181 28.4101 24.8719 28.1178 24.3489C27.8717 23.8566 27.7486 23.3181 27.764 22.7796C27.764 22.1181 27.9486 21.4873 28.2871 20.9181C28.6717 20.3027 29.2409 19.8104 29.9025 19.5027C30.6255 19.1335 31.5332 18.9642 32.6255 18.9642C33.2563 18.9642 33.9025 19.0104 34.5332 19.1027C34.9948 19.1642 35.4409 19.2873 35.8563 19.4566C35.9178 19.4719 35.9794 19.5335 36.0101 19.595C36.0255 19.6566 36.0409 19.7181 36.0409 19.7796V22.2873C36.0409 22.3489 36.0101 22.4104 35.964 22.4412C35.8255 22.4719 35.7486 22.4719 35.6871 22.4412Z" fill="#31A8FF"/>
</svg>
